<svg width="28" height="23" viewBox="0 0 28 23" fill="none" xmlns="http://www.w3.org/2000/svg">
<path d="M27.629 4.87536C27.712 4.80636 27.7743 4.71567 27.8088 4.6134C27.8433 4.51113 27.8488 4.40127 27.8246 4.29607C27.8004 4.19086 27.7475 4.09443 27.6718 4.01751C27.5961 3.94058 27.5005 3.88618 27.3957 3.86036L26.474 3.62703C26.3902 3.60605 26.3121 3.56671 26.2453 3.51187C26.1786 3.45703 26.1249 3.38804 26.088 3.3099C26.0512 3.23176 26.0322 3.14641 26.0323 3.06002C26.0325 2.97363 26.0519 2.88836 26.089 2.81036L26.6023 1.77203C26.6508 1.67141 26.6694 1.55899 26.6559 1.44812C26.6424 1.33725 26.5973 1.23259 26.526 1.14659C26.4548 1.06058 26.3603 0.996841 26.2539 0.962943C26.1475 0.929045 26.0335 0.926413 25.9257 0.955361L23.5923 1.60869C23.5054 1.63405 23.4137 1.63882 23.3246 1.62262C23.2355 1.60642 23.1514 1.5697 23.079 1.51536C22.0693 0.758065 20.8412 0.348694 19.579 0.348694C18.0319 0.348694 16.5482 0.963275 15.4542 2.05724C14.3602 3.1512 13.7457 4.63493 13.7457 6.18203V6.60203C13.7462 6.67368 13.7203 6.74302 13.673 6.79682C13.6256 6.85061 13.5601 6.8851 13.489 6.89369C10.2107 7.27869 7.07233 5.61036 3.689 1.71369C3.6155 1.63264 3.52107 1.57341 3.4161 1.54254C3.31113 1.51166 3.19968 1.51033 3.094 1.53869C2.99879 1.58245 2.91713 1.65105 2.8576 1.73727C2.79806 1.8235 2.76285 1.92416 2.75566 2.02869C2.28836 3.94826 2.4773 5.96902 3.29233 7.76869C3.31645 7.81643 3.32697 7.86987 3.32276 7.92319C3.31855 7.9765 3.29976 8.02763 3.26845 8.07098C3.23714 8.11434 3.19451 8.14825 3.14522 8.16901C3.09594 8.18977 3.04189 8.19658 2.989 8.18869L1.68233 7.93203C1.58953 7.91711 1.49451 7.92483 1.40534 7.95454C1.31618 7.98425 1.23551 8.03506 1.1702 8.10266C1.1049 8.17025 1.0569 8.25262 1.03028 8.34276C1.00366 8.4329 0.99922 8.52814 1.01733 8.62036C1.11806 9.51572 1.41887 10.377 1.89749 11.1403C2.37611 11.9037 3.02028 12.5496 3.78233 13.0304C3.83164 13.0542 3.87323 13.0915 3.90233 13.138C3.93143 13.1844 3.94686 13.2381 3.94686 13.2929C3.94686 13.3477 3.93143 13.4013 3.90233 13.4478C3.87323 13.4942 3.83164 13.5315 3.78233 13.5554L3.164 13.8004C3.0889 13.8305 3.02089 13.8759 2.96429 13.9337C2.90769 13.9915 2.86372 14.0604 2.8352 14.1361C2.80667 14.2118 2.7942 14.2926 2.79859 14.3734C2.80297 14.4542 2.82411 14.5332 2.86066 14.6054C3.2026 15.3536 3.72091 16.0077 4.37114 16.5116C5.02138 17.0156 5.78413 17.3543 6.594 17.4987C6.6503 17.5191 6.69895 17.5564 6.73333 17.6055C6.76771 17.6545 6.78615 17.713 6.78615 17.7729C6.78615 17.8328 6.76771 17.8912 6.73333 17.9403C6.69895 17.9893 6.6503 18.0266 6.594 18.047C5.00775 18.7031 3.30547 19.0324 1.589 19.0154C1.43429 18.9844 1.27362 19.0162 1.14235 19.1037C1.01107 19.1912 0.919938 19.3273 0.888996 19.482C0.858054 19.6367 0.889838 19.7974 0.977355 19.9287C1.06487 20.06 1.20095 20.1511 1.35566 20.182C4.3278 21.5916 7.56371 22.3589 10.8523 22.4337C13.745 22.4778 16.5862 21.666 19.019 20.1004C21.0201 18.7646 22.6596 16.9544 23.7914 14.8313C24.9232 12.7082 25.5121 10.338 25.5057 7.93203V6.91703C25.5064 6.83231 25.5255 6.74877 25.5618 6.67221C25.5981 6.59565 25.6506 6.52791 25.7157 6.47369L27.629 4.87536Z" fill="#38404D"/>
</svg>
