<svg width="16" height="29" viewBox="0 0 16 29" fill="none" xmlns="http://www.w3.org/2000/svg">
<path d="M15.4708 8.7273C15.4168 8.66581 15.3504 8.61638 15.2761 8.58221C15.2017 8.54804 15.121 8.5299 15.0391 8.52897H10.6408V6.88397C10.6408 6.5573 10.7108 6.18397 11.2358 6.18397H14.7358C14.8126 6.18725 14.8892 6.17322 14.9599 6.14293C15.0305 6.11264 15.0935 6.06686 15.1441 6.00897C15.247 5.90229 15.3054 5.76047 15.3075 5.6123V0.945638C15.3075 0.790928 15.246 0.642555 15.1366 0.533159C15.0272 0.423763 14.8788 0.362305 14.7241 0.362305H9.67246C4.07246 0.362305 3.64079 5.14564 3.64079 6.60397V8.52897H0.724126C0.569417 8.52897 0.421044 8.59043 0.311647 8.69983C0.202251 8.80922 0.140793 8.95759 0.140793 9.1123V13.779C0.140793 13.9337 0.202251 14.0821 0.311647 14.1915C0.421044 14.3008 0.569417 14.3623 0.724126 14.3623H3.64079V27.779C3.64079 27.9337 3.70225 28.0821 3.81165 28.1915C3.92104 28.3008 4.06942 28.3623 4.22413 28.3623H10.0575C10.2122 28.3623 10.3605 28.3008 10.4699 28.1915C10.5793 28.0821 10.6408 27.9337 10.6408 27.779V14.3623H14.5491C14.6942 14.363 14.8344 14.3096 14.9423 14.2126C15.0501 14.1155 15.1179 13.9817 15.1325 13.8373L15.6225 9.17064C15.6292 9.09027 15.6192 9.00938 15.5931 8.93307C15.567 8.85677 15.5253 8.7867 15.4708 8.7273Z" fill="#38404D"/>
</svg>
