<svg width="28" height="28" viewBox="0 0 28 28" fill="none" xmlns="http://www.w3.org/2000/svg">
<path d="M7.58316 9.91669H2.91649C2.59433 9.91669 2.33316 10.1779 2.33316 10.5V25.6667C2.33316 25.9888 2.59433 26.25 2.91649 26.25H7.58316C7.90532 26.25 8.16649 25.9888 8.16649 25.6667V10.5C8.16649 10.1779 7.90532 9.91669 7.58316 9.91669Z" fill="#38404D"/>
<path d="M5.22649 7.58327C6.82444 7.58327 8.11983 6.27744 8.11983 4.66661C8.11983 3.05578 6.82444 1.74994 5.22649 1.74994C3.62855 1.74994 2.33316 3.05578 2.33316 4.66661C2.33316 6.27744 3.62855 7.58327 5.22649 7.58327Z" fill="#38404D"/>
<path d="M21.583 26.2497H25.083C25.2377 26.2497 25.386 26.1882 25.4954 26.0788C25.6048 25.9694 25.6663 25.821 25.6663 25.6663V15.8663C25.6663 11.468 23.1813 9.33299 19.7046 9.33299C19.0189 9.30791 18.3355 9.42681 17.6985 9.682C17.0615 9.9372 16.485 10.323 16.0063 10.8147C15.9423 10.8885 15.8573 10.9411 15.7626 10.9652C15.6679 10.9893 15.5681 10.9838 15.4767 10.9495C15.3852 10.9152 15.3064 10.8537 15.2509 10.7733C15.1954 10.6928 15.1659 10.5974 15.1663 10.4997C15.1663 10.345 15.1048 10.1966 14.9954 10.0872C14.886 9.97778 14.7377 9.91633 14.583 9.91633H11.083C10.9282 9.91633 10.7799 9.97778 10.6705 10.0872C10.5611 10.1966 10.4996 10.345 10.4996 10.4997V25.6663C10.4996 25.821 10.5611 25.9694 10.6705 26.0788C10.7799 26.1882 10.9282 26.2497 11.083 26.2497H14.583C14.7377 26.2497 14.886 26.1882 14.9954 26.0788C15.1048 25.9694 15.1663 25.821 15.1663 25.6663V16.9163C15.1663 16.1428 15.4736 15.4009 16.0206 14.8539C16.5675 14.307 17.3094 13.9997 18.083 13.9997C18.8565 13.9997 19.5984 14.307 20.1453 14.8539C20.6923 15.4009 20.9996 16.1428 20.9996 16.9163V25.6663C20.9996 25.821 21.0611 25.9694 21.1705 26.0788C21.2799 26.1882 21.4282 26.2497 21.583 26.2497Z" fill="#38404D"/>
</svg>
